<svg width="40" height="40" viewBox="0 0 40 40" fill="none" xmlns="http://www.w3.org/2000/svg">
<g clip-path="url(#clip0_0_173)">
<path d="M19.4311 0.0101807C11.484 0.289027 4.88189 6.48926 4.11916 14.4036C3.96334 15.9864 4.05355 17.5201 4.3324 18.9881C4.3324 18.9881 4.357 19.1604 4.43902 19.4884C4.68506 20.5874 5.05412 21.6536 5.51339 22.6541C7.11266 26.4432 10.8115 32.7828 19.1112 39.6802C19.6197 40.1066 20.3661 40.1066 20.8827 39.6802C29.1825 32.791 32.8813 26.4514 34.4888 22.6459C34.9563 21.6454 35.3171 20.5874 35.5632 19.4802C35.637 19.1604 35.6698 18.9799 35.6698 18.9799C35.8584 17.9958 35.9568 16.987 35.9568 15.9536C35.9568 6.94853 28.5018 -0.309672 19.4311 0.0101807ZM19.997 23.8925C15.7159 23.8925 12.2467 20.4234 12.2467 16.1423C12.2467 11.8611 15.7159 8.39197 19.997 8.39197C24.2781 8.39197 27.7473 11.8611 27.7473 16.1423C27.7473 20.4234 24.2781 23.8925 19.997 23.8925Z" fill="#FF0000"/>
</g>
<defs>
<clipPath id="clip0_0_173">
<rect width="40" height="40" fill="white"/>
</clipPath>
</defs>
</svg>
